<?xml version="1.0" encoding="UTF-8" standalone="no"?>
<svg
   xmlns:svg="http://www.w3.org/2000/svg"
   xmlns="http://www.w3.org/2000/svg"
   version="1.1"
   viewBox="0 0 16 16"
   height="16"
   width="16">
  <g>
    <path
       style="opacity:1;fill:#ffffff;fill-opacity:0;stroke:none;stroke-width:1;stroke-linecap:butt;stroke-linejoin:round;stroke-miterlimit:4;stroke-dasharray:none;stroke-dashoffset:0;stroke-opacity:1;paint-order:fill markers stroke"
       d="M 16,16 H 0 V 0 h 16" />
    <path
       d="m 0,2.9688 v 9 c 0,0.617 0.227,1.103 0.57,1.435 0.57,0.544 1.43,0.565 1.43,0.565 H 13.677 L 16,8.1648 v -1.196 h -1 v -2 c 0,-1.299 -1.03,-2 -2,-2 h -2.884 l -1,-2 H 2 c -0.995,0 -2,0.697 -2,2"
       style="opacity:1;fill:#f6f6f6;fill-opacity:1;stroke:none;stroke-width:1;stroke-linecap:butt;stroke-linejoin:round;stroke-miterlimit:4;stroke-dasharray:none;stroke-dashoffset:0;stroke-opacity:1;paint-order:fill markers stroke" />
    <path
       style="opacity:1;fill:#dcb67a;fill-opacity:1;stroke:none;stroke-width:1;stroke-linecap:butt;stroke-linejoin:round;stroke-miterlimit:4;stroke-dasharray:none;stroke-dashoffset:0;stroke-opacity:1;paint-order:fill markers stroke"
       d="m 1,3 v 9 c 0,0.97 0.94,0.984 0.997,0.984 H 2 V 3 h 6 l 1,2 h 4 V 8 H 4 L 2,13 H 13 L 15,8 H 14 V 5 C 14,4 12.764,4 13,4 H 9.5 L 8.5,2 H 2 C 2,2 1,2 1,3" />
  </g>
</svg>
