<?xml version="1.0" encoding="iso-8859-1"?>
<!-- Generator: Adobe Illustrator 19.0.0, SVG Export Plug-In . SVG Version: 6.00 Build 0)  -->
<svg version="1.1" id="Capa_1" xmlns="http://www.w3.org/2000/svg" xmlns:xlink="http://www.w3.org/1999/xlink" x="0px" y="0px"
	 viewBox="0 0 508.048 508.048" style="enable-background:new 0 0 508.048 508.048;" xml:space="preserve">
<g>
	<path style="fill:#F6B44B;" d="M455.234,64.124h-423.4v132.6h444.4v-111.6C476.234,73.524,466.834,64.124,455.234,64.124z"/>
	<path style="fill:#F6B44B;" d="M196.234,2.324h-143.4c-11.6,0-21,9.4-21,21v40.8h185.5v-40.8
		C217.334,11.724,207.934,2.324,196.234,2.324z"/>
</g>
<rect x="84.134" y="92.724" style="fill:#F2F2F2;" width="339.8" height="102.1"/>
<rect x="119.134" y="116.824" style="fill:#65C5B8;" width="140.4" height="12.9"/>
<rect x="119.134" y="158.024" style="fill:#89D6F7;" width="269.7" height="12.9"/>
<path style="fill:#FFD05C;" d="M487.034,194.824h-466c-12.8,0-22.7,11.4-20.8,24.1l39.7,268.8c1.5,10.3,10.4,18,20.8,18h386.6
	c10.4,0,19.3-7.6,20.8-18l39.7-268.7C509.634,206.324,499.834,194.824,487.034,194.824z"/>
<g>
</g>
<g>
</g>
<g>
</g>
<g>
</g>
<g>
</g>
<g>
</g>
<g>
</g>
<g>
</g>
<g>
</g>
<g>
</g>
<g>
</g>
<g>
</g>
<g>
</g>
<g>
</g>
<g>
</g>
</svg>
