<?xml version="1.0" encoding="UTF-8" standalone="no"?>
<svg
   xmlns:svg="http://www.w3.org/2000/svg"
   xmlns="http://www.w3.org/2000/svg"
   version="1.1"
   viewBox="0 0 16 16"
   height="16"
   width="16">
  <g>
    <path
       d="M 16,16 H 0 V 0 h 16"
       style="opacity:1;fill:#ffffff;fill-opacity:0;stroke:none;stroke-width:1;stroke-linecap:butt;stroke-linejoin:round;stroke-miterlimit:4;stroke-dasharray:none;stroke-dashoffset:0;stroke-opacity:1;paint-order:fill markers stroke" />
    <path
       style="opacity:1;fill:#f6f6f6;fill-opacity:1;stroke:none;stroke-width:1;stroke-linecap:butt;stroke-linejoin:round;stroke-miterlimit:4;stroke-dasharray:none;stroke-dashoffset:0;stroke-opacity:1;paint-order:fill markers stroke"
       d="m 1.5,1 h 8.11 l 1,2 h 2.886 c 0.827,0 1.5,0.673 1.5,1.5 v 8 c 0,0.827 -0.673,1.5 -1.5,1.5 H 1.5 C 0.673,14 0,13.327 0,12.5 V 2.5 C 0,1.673 0.673,1 1.5,1" />
    <path
       d="m 2,3 h 6.374 l 0.5,1 H 2 Z M 13.496,4 H 10 9.992 l -1,-2 H 1.5 C 1.225,2 1,2.224 1,2.5 v 10 C 1,12.776 1.225,13 1.5,13 h 11.996 c 0.277,0 0.5,-0.224 0.5,-0.5 v -8 c 0,-0.276 -0.223,-0.5 -0.5,-0.5"
       style="opacity:1;fill:#dcb67a;fill-opacity:1;stroke:none;stroke-width:1;stroke-linecap:butt;stroke-linejoin:round;stroke-miterlimit:4;stroke-dasharray:none;stroke-dashoffset:0;stroke-opacity:1;paint-order:fill markers stroke" />
    <path
       d="m 2,3 h 6.374 l 0.5,1 H 2"
       style="opacity:1;fill:#efeff0;fill-opacity:1;stroke:none;stroke-width:1;stroke-linecap:butt;stroke-linejoin:round;stroke-miterlimit:4;stroke-dasharray:none;stroke-dashoffset:0;stroke-opacity:1;paint-order:fill markers stroke" />
  </g>
</svg>
