<?xml version="1.0" encoding="iso-8859-1"?>
<!-- Generator: Adobe Illustrator 19.0.0, SVG Export Plug-In . SVG Version: 6.00 Build 0)  -->
<svg version="1.1" id="Capa_1" xmlns="http://www.w3.org/2000/svg" xmlns:xlink="http://www.w3.org/1999/xlink" x="0px" y="0px"
	 viewBox="0 0 508.039 508.039" style="enable-background:new 0 0 508.039 508.039;" xml:space="preserve">
<circle style="fill:#41596B;" cx="199.313" cy="199.3" r="199.3"/>
<circle style="fill:#89D6F7;" cx="199.313" cy="199.3" r="150.9"/>
<path style="fill:#55BFE9;" d="M199.313,48.4c-44.5,0-84.6,19.3-112.2,50c26.8-24.1,62.1-38.7,100.9-38.7
	c83.4,0,150.9,67.6,150.9,150.9c0,38.8-14.6,74.2-38.7,100.9c30.7-27.6,50-67.7,50-112.2C350.213,115.9,282.613,48.4,199.313,48.4z"
	/>
<path style="fill:#F6B44B;" d="M399.513,329.2c-3-3-7.8-3-10.7,0l-59.6,59.6c-3,3-3,7.8,0,10.7c3,3,7.8,3,10.7,0l59.6-59.6
	C402.413,337,402.413,332.2,399.513,329.2z"/>
<path style="fill:#334A5E;" d="M375.213,342.8l-32.4,32.4l-11.8-11.8l-8-8c12-9.5,22.9-20.4,32.4-32.4L375.213,342.8z"/>
<polygon style="fill:#FFD05C;" points="406.913,348.4 397.713,341.6 341.613,397.7 348.413,406.9 405.513,484.8 484.813,405.6 "/>
<path style="fill:#F6B44B;" d="M484.813,405.6l-79.3,79.3c20.6,28,61.3,31.1,85.8,6.5l0,0
	C516.013,466.8,512.913,426.1,484.813,405.6z"/>
<g>
</g>
<g>
</g>
<g>
</g>
<g>
</g>
<g>
</g>
<g>
</g>
<g>
</g>
<g>
</g>
<g>
</g>
<g>
</g>
<g>
</g>
<g>
</g>
<g>
</g>
<g>
</g>
<g>
</g>
</svg>
