<?xml version="1.0" encoding="UTF-8" standalone="no"?>
<svg
   xmlns:svg="http://www.w3.org/2000/svg"
   xmlns="http://www.w3.org/2000/svg"
   version="1.1"
   viewBox="0 0 16 16"
   height="16"
   width="16">
  <g>
    <path
       style="opacity:1;fill:#ffffff;fill-opacity:0;stroke:none;stroke-width:1;stroke-linecap:butt;stroke-linejoin:round;stroke-miterlimit:4;stroke-dasharray:none;stroke-dashoffset:0;stroke-opacity:1;paint-order:fill markers stroke"
       d="M 16,16 H 0 V 0 h 16"/>
    <path
       d="M 4,15 C 3.03,15 2,14.299 2,13 V 3 C 2,1.701 3.03,1 4,1 h 6.061 L 14,4.556 V 13 c 0,0.97 -0.701,2 -2,2"
       style="opacity:1;fill:#f6f6f6;fill-opacity:1;stroke:none;stroke-width:1;stroke-linecap:butt;stroke-linejoin:round;stroke-miterlimit:4;stroke-dasharray:none;stroke-dashoffset:0;stroke-opacity:1;paint-order:fill markers stroke" />
    <path
       style="opacity:1;fill:#424242;fill-opacity:1;stroke:none;stroke-width:1;stroke-linecap:butt;stroke-linejoin:round;stroke-miterlimit:4;stroke-dasharray:none;stroke-dashoffset:0;stroke-opacity:1;paint-order:fill markers stroke"
       d="M 12,13 H 4 V 3 h 5 v 3 h 3 z M 9.641,2 H 3.964 C 3.964,2 3,2 3,3 v 10 c 0,1 0.965,1 0.965,1 h 8 C 12.965,14 13,13 13,13 V 5" />
    <path
       d="m 4,3 h 5 v 3 h 3 v 7 H 4"
       style="opacity:1;fill:#f0eff1;fill-opacity:1;stroke:none;stroke-width:1;stroke-linecap:butt;stroke-linejoin:round;stroke-miterlimit:4;stroke-dasharray:none;stroke-dashoffset:0;stroke-opacity:1;paint-order:fill markers stroke" />
  </g>
</svg>
