<svg xmlns="http://www.w3.org/2000/svg" viewBox="0 0 48 48"><path fill="#616161" d="M29.172,32L32,29.172l12,12L41.172,44L29.172,32z"></path><path fill="#616161" d="M36,20c0,8.836-7.164,16-16,16S4,28.836,4,20S11.164,4,20,4S36,11.164,36,20"></path><path fill="#37474f" d="M32.477,35.309l2.828-2.828L44,41.172L41.168,44L32.477,35.309z"></path><path fill="#64b5f6" d="M7,20c0-7.18,5.82-13,13-13s13,5.82,13,13s-5.82,13-13,13S7,27.18,7,20"></path><path fill="#e3f2fd" d="M26.5,25.421L25,24.124l3.398-4.102L25,15.921l1.5-1.297l4.602,5.398L26.5,25.421z"></path><path fill="#e3f2fd" d="M13.5,25.421l-4.602-5.398l4.602-5.398l1.5,1.297l-3.398,4.102L15,24.124L13.5,25.421z"></path><path fill="#e3f2fd" d="M16.379,27.187l5.203-15.234l1.895,0.645L18.27,27.831L16.379,27.187z"></path></svg>