<?xml version="1.0" encoding="utf-8"?>
<!-- Generator: Adobe Illustrator 24.3.0, SVG Export Plug-In . SVG Version: 6.00 Build 0)  -->
<svg version="1.1" id="Layer_1" xmlns="http://www.w3.org/2000/svg" xmlns:xlink="http://www.w3.org/1999/xlink" x="0px" y="0px"
	 viewBox="0 0 636 300" style="enable-background:new 0 0 636 300;" xml:space="preserve">
<style type="text/css">
	.st0{fill:#F7B548;}
	.st1{fill:#DF9B39;}
	.st2{fill:#C8C6C4;}
	.st3{fill:#797673;}
	.st4{fill:#FFFFFF;}
	.st5{fill:#B3AFAB;}
	.st6{fill:#605D5A;}
	.st7{fill:#9C9894;}
	.st8{fill:#D5D3D0;}
	.st9{fill:#E6E4E3;}
	.st10{fill:#6BA8F1;}
	.st11{fill:#CAE0FA;}
	.st12{fill:#3E8EED;}
	.st13{fill:#A3C9F6;}
	.st14{fill:#81B5F3;}
	.st15{fill:#848484;}
	.st16{fill:url(#SVGID_1_);}
	.st17{fill:#8B9B23;}
	.st18{fill:#C5D43B;}
	.st19{fill:#E1DFDD;}
</style>
<g>
	<g>
		<path class="st0" d="M425.46,225.04l108.43-4.43V27.54L425.46,225.04z M463.58,198.12l45.57-84.13v82.85L463.58,198.12z"/>
		<g>
			<path class="st1" d="M528.55,209v-3.77l5.27-0.16v3.75L528.55,209z M528.55,195.82v-3.77l5.27-0.11v3.75L528.55,195.82z
				 M528.55,182.63v-3.77l5.27-0.06v3.75L528.55,182.63z M528.55,169.44v-3.77l5.27-0.02v3.75L528.55,169.44z M528.55,156.25v-3.77
				l5.27,0.03v3.75L528.55,156.25z M528.55,143.07v-3.77l5.27,0.08v3.75L528.55,143.07z M528.55,129.88v-3.77l5.27,0.12v3.75
				L528.55,129.88z M528.55,116.69v-3.77l5.27,0.17v3.75L528.55,116.69z M528.55,103.5v-3.77l5.27,0.22v3.75L528.55,103.5z
				 M528.55,90.32v-3.77l5.27,0.27v3.75L528.55,90.32z M528.55,77.13v-3.77l5.27,0.31v3.75L528.55,77.13z M528.55,63.94v-3.77
				l5.27,0.36v3.75L528.55,63.94z M528.55,50.76v-3.77l5.27,0.41v3.75L528.55,50.76z"/>
		</g>
	</g>
	<g>
		<path class="st2" d="M259.75,249.36l-119.48,6.09c-1.82,0.09-3.29-1.19-3.29-2.86V129.84c0-1.67,1.48-3,3.29-2.97l119.48,2.19
			c1.59,0.03,2.87,1.32,2.87,2.87v114.46C262.62,247.95,261.34,249.28,259.75,249.36z"/>
		<path class="st3" d="M249.1,148.85l-97.6-0.67c-1.38-0.01-2.5-1.05-2.5-2.33v-4.9c0-1.28,1.12-2.3,2.5-2.28l97.6,1.17
			c1.24,0.01,2.23,1,2.23,2.21v4.63C251.34,147.89,250.34,148.86,249.1,148.85z"/>
		<polygon class="st4" points="251.34,160.66 149.01,160.65 149.01,156.81 251.34,157.04 		"/>
		<polygon class="st5" points="251.34,179.53 175.27,180.34 175.27,176.56 251.34,175.91 		"/>
		<path class="st5" d="M169.94,178.28c0,1.65-1.48,3-3.31,3.02c-1.83,0.02-3.32-1.3-3.32-2.96s1.49-3.01,3.32-3.02
			C168.46,175.3,169.94,176.63,169.94,178.28z"/>
		<polygon class="st5" points="251.34,170.09 175.27,170.5 175.27,166.72 251.34,166.47 		"/>
		<path class="st5" d="M169.94,168.4c0,1.65-1.48,2.99-3.31,3c-1.83,0.01-3.32-1.32-3.32-2.98c0-1.65,1.49-3,3.32-3
			C168.46,165.42,169.94,166.75,169.94,168.4z"/>
		<path class="st3" d="M249.1,203.17l-97.6,2.36c-1.38,0.03-2.5-0.97-2.5-2.25v-4.9c0-1.28,1.12-2.33,2.5-2.36l97.6-1.86
			c1.24-0.02,2.23,0.93,2.23,2.14v4.63C251.34,202.14,250.34,203.14,249.1,203.17z"/>
		<polygon class="st4" points="251.34,214.91 149.01,218.08 149.01,214.24 251.34,211.28 		"/>
		<polygon class="st5" points="251.34,233.77 175.27,236.95 175.27,233.17 251.34,230.15 		"/>
		<path class="st5" d="M169.94,235.05c0,1.65-1.48,3.05-3.31,3.12c-1.83,0.08-3.32-1.2-3.32-2.86c0-1.65,1.49-3.05,3.32-3.13
			C168.46,232.12,169.94,233.4,169.94,235.05z"/>
		<polygon class="st5" points="251.34,224.34 175.27,227.11 175.27,223.33 251.34,220.72 		"/>
		<path class="st5" d="M169.94,225.18c0,1.65-1.48,3.04-3.31,3.11c-1.83,0.07-3.32-1.22-3.32-2.87s1.49-3.05,3.32-3.11
			C168.46,222.24,169.94,223.53,169.94,225.18z"/>
	</g>
	<g>
		<path class="st6" d="M494.07,68.3V46.22c0-2.59-1.85-4.84-4.15-5.02L250.82,22.2c-3.09-0.24-5.6,2.01-5.6,5.03v25.88L494.07,68.3z
			"/>
		<path class="st7" d="M350.39,48.74l-80.76-5.5c-2.85-0.19-5.16-2.64-5.16-5.45v-0.25c0-2.82,2.32-4.93,5.16-4.72l80.76,5.99
			c2.58,0.19,4.66,2.51,4.66,5.18v0.24C355.05,46.89,352.97,48.92,350.39,48.74z"/>
		<path class="st8" d="M245.22,49.84v156.71c0,3.02,2.59,5.4,5.78,5.3l238.77-6.97c2.37-0.07,4.28-2.23,4.28-4.82V65.61
			L245.22,49.84z"/>
		<polygon class="st7" points="245.22,64.95 494.07,78.58 494.07,65.61 245.22,49.84 		"/>
		<path class="st5" d="M474.42,139.01l-88.36-1.27c-1.34-0.02-2.43-1.19-2.43-2.61V83.39c0-1.42,1.09-2.52,2.43-2.46l88.36,4.38
			c1.2,0.06,2.17,1.19,2.17,2.54v48.75C476.59,137.95,475.62,139.03,474.42,139.01z"/>
		<g>
			<g>
				<polygon class="st4" points="270.58,138.93 266.19,138.87 266.19,134.48 270.64,134.55 				"/>
			</g>
			<g>
				<path class="st4" d="M363.06,140.22l-4.62-0.07l0.06-4.38l4.62,0.07L363.06,140.22z M351.5,140.06l-4.62-0.07l0.06-4.38
					l4.62,0.07L351.5,140.06z M339.94,139.9l-4.63-0.07l0.06-4.38l4.63,0.07L339.94,139.9z M328.38,139.74l-4.62-0.07l0.06-4.38
					l4.62,0.07L328.38,139.74z M316.82,139.57l-4.62-0.07l0.06-4.38l4.62,0.07L316.82,139.57z M305.26,139.41l-4.62-0.06l0.06-4.38
					l4.62,0.06L305.26,139.41z M293.7,139.25l-4.63-0.06l0.06-4.38l4.63,0.06L293.7,139.25z M282.14,139.09l-4.62-0.06l0.06-4.38
					l4.62,0.06L282.14,139.09z"/>
			</g>
			<g>
				<polygon class="st4" points="374.45,140.38 370,140.32 370.07,135.93 374.45,135.93 				"/>
			</g>
			<g>
				<path class="st4" d="M374.45,129.08h-4.38v-4.57h4.38V129.08z M374.45,117.66h-4.38v-4.57h4.38V117.66z M374.45,106.24h-4.38
					v-4.57h4.38V106.24z M374.45,94.82h-4.38v-4.57h4.38V94.82z"/>
			</g>
			<g>
				<polygon class="st4" points="374.45,83.4 370.07,83.4 370.07,83.26 369.93,83.25 370.14,78.88 374.45,79.09 				"/>
			</g>
			<g>
				<path class="st4" d="M362.99,82.91l-4.62-0.23l0.21-4.38l4.62,0.23L362.99,82.91z M351.43,82.35l-4.62-0.23l0.21-4.38l4.62,0.23
					L351.43,82.35z M339.87,81.78l-4.63-0.23l0.21-4.38l4.63,0.23L339.87,81.78z M328.31,81.21l-4.62-0.23l0.21-4.38l4.62,0.23
					L328.31,81.21z M316.75,80.64l-4.63-0.23l0.21-4.38l4.63,0.23L316.75,80.64z M305.18,80.08l-4.62-0.23l0.21-4.38l4.62,0.23
					L305.18,80.08z M293.62,79.51L289,79.28l0.21-4.38l4.63,0.23L293.62,79.51z M282.06,78.94l-4.62-0.23l0.21-4.38l4.62,0.23
					L282.06,78.94z"/>
			</g>
			<g>
				<polygon class="st4" points="270.5,78.38 269.07,78.31 266.19,78.31 266.19,73.78 270.71,74 				"/>
			</g>
			<g>
				<path class="st4" d="M270.57,127.15h-4.38v-4.89h4.38V127.15z M270.57,114.94h-4.38v-4.88h4.38V114.94z M270.57,102.73h-4.38
					v-4.88h4.38V102.73z M270.57,90.52h-4.38v-4.88h4.38V90.52z"/>
			</g>
		</g>
		<polygon class="st4" points="476.68,151.69 383.73,151.13 383.73,143.89 476.68,144.87 		"/>
		<g>
			<path class="st5" d="M386.3,167.16c-2.84,0.01-5.15-2.35-5.15-5.27s2.32-5.28,5.15-5.27c2.83,0.01,5.12,2.37,5.12,5.27
				S389.13,167.15,386.3,167.16z M386.3,157.71c-2.25,0-4.09,1.87-4.09,4.18s1.84,4.19,4.09,4.18c2.25-0.01,4.07-1.88,4.07-4.18
				S388.54,157.71,386.3,157.71z"/>
		</g>
		<path class="st5" d="M388.61,161.89c0,1.31-1.04,2.38-2.32,2.38c-1.28,0-2.32-1.06-2.32-2.38c0-1.32,1.04-2.38,2.32-2.38
			C387.58,159.51,388.61,160.58,388.61,161.89z"/>
		<g>
			<path class="st5" d="M437.66,166.96c-2.66,0.01-4.83-2.28-4.83-5.1c0-2.82,2.17-5.11,4.83-5.1c2.65,0.01,4.8,2.29,4.8,5.1
				C442.47,164.66,440.32,166.95,437.66,166.96z M437.66,157.81c-2.11,0-3.83,1.81-3.83,4.05c0,2.24,1.72,4.05,3.83,4.04
				c2.1-0.01,3.81-1.82,3.81-4.05C441.48,159.63,439.77,157.82,437.66,157.81z"/>
		</g>
		<polygon class="st5" points="426.44,164.68 394.69,164.76 394.69,158.71 426.44,158.76 		"/>
		<g>
			<path class="st5" d="M284.77,167.56c-3.21,0.01-5.83-2.5-5.83-5.6s2.62-5.61,5.83-5.6c3.2,0.01,5.79,2.52,5.79,5.6
				S287.96,167.54,284.77,167.56z M284.77,157.51c-2.55,0-4.62,1.99-4.62,4.45c0,2.46,2.07,4.45,4.62,4.44
				c2.54-0.01,4.59-2,4.59-4.45S287.31,157.52,284.77,157.51z"/>
		</g>
		<path class="st5" d="M287.39,161.95c0,1.39-1.17,2.53-2.62,2.53c-1.45,0-2.63-1.13-2.63-2.53c0-1.4,1.18-2.53,2.63-2.53
			C286.22,159.43,287.39,160.56,287.39,161.95z"/>
		<polygon class="st5" points="358.54,164.84 294.25,165 294.25,158.58 358.54,158.66 		"/>
		<g>
			<path class="st5" d="M284.77,186.07c-3.21,0.05-5.83-2.44-5.83-5.53s2.62-5.64,5.83-5.67c3.2-0.03,5.79,2.46,5.79,5.53
				S287.96,186.02,284.77,186.07z M284.77,176.02c-2.55,0.02-4.62,2.04-4.62,4.5c0,2.46,2.07,4.43,4.62,4.39
				c2.54-0.04,4.59-2.05,4.59-4.5C289.36,177.97,287.31,176,284.77,176.02z"/>
		</g>
		<polygon class="st5" points="358.54,182.56 294.25,183.41 294.25,176.99 358.54,176.38 		"/>
		<polygon class="st5" points="476.19,164.56 446.45,164.63 446.45,158.78 476.19,158.82 		"/>
		<polygon class="st4" points="442.6,184.72 381.4,185.66 381.4,174.99 442.6,174.46 		"/>
		<path class="st7" d="M474.57,175.72v6.96l-25.96,0.37v-7.08L474.57,175.72 M475.99,174.17l-28.86,0.25v10.23l28.86-0.44V174.17
			L475.99,174.17z"/>
		<polygon class="st7" points="442.6,184.72 432.08,184.88 432.08,174.55 442.6,174.46 		"/>
		<polyline class="st9" points="434.05,177.63 437.53,181.27 440.76,177.41 		"/>
	</g>
	<g>
		<g>
			<polygon class="st2" points="509.58,240.37 522.71,234.67 522.71,232.79 509.58,228.65 			"/>
			<path class="st10" d="M388.68,246.83l120.9-6.47c0.58-0.03,1.05-2.68,1.05-5.91c0-3.23-0.47-5.84-1.05-5.81l-120.9,5.51V246.83z"
				/>
			<path class="st11" d="M381.06,247.24l9.51-0.51c0.68-0.04,1.23-2.9,1.23-6.39c0-3.49-0.55-6.3-1.23-6.27l-9.51,0.43V247.24z"/>
			<path class="st12" d="M388.68,242.13v4.71l120.9-6.47c0.49-0.03,0.9-1.9,1.02-4.41L388.68,242.13z"/>
			<path class="st13" d="M381.06,242.51v4.73l9.51-0.51c0.57-0.03,1.04-2.05,1.18-4.76L381.06,242.51z"/>
			<path class="st14" d="M381.06,234.51c0.69-0.03,1.24,2.79,1.24,6.31c0,3.51-0.56,6.39-1.24,6.43c-0.69,0.04-1.25-2.79-1.25-6.31
				S380.37,234.54,381.06,234.51z"/>
		</g>
		<path class="st15" d="M520.48,235.63c0,0,3.23-1.36,3.85-1.66c0.36-0.17,0.36-0.53-0.02-0.67c-0.38-0.13-2.22-0.71-3.84-1.22
			C521.1,233.9,520.48,235.63,520.48,235.63z"/>
	</g>
	<g>
		
			<linearGradient id="SVGID_1_" gradientUnits="userSpaceOnUse" x1="-4556.9624" y1="-2917.269" x2="-4463.4487" y2="-2917.269" gradientTransform="matrix(0.6289 -0.7775 0.7775 0.6289 5250.9297 -1582.5897)">
			<stop  offset="0.0436" style="stop-color:#FFFFFF;stop-opacity:0"/>
			<stop  offset="0.5612" style="stop-color:#E1DFDD;stop-opacity:0.8"/>
		</linearGradient>
		<polygon class="st16" points="207.93,152.3 149.21,150.34 48.96,70.78 208.74,79.75 		"/>
		<g>
			<g>
				<g>
					<polygon class="st4" points="321,152.5 207.11,151.76 207.11,81.15 321,86.41 					"/>
					<path class="st17" d="M322.1,153.6l-116.08-0.75V80l116.08,5.37V153.6z M208.21,150.67l111.7,0.72V87.46l-111.7-5.16V150.67z"
						/>
				</g>
				<polygon class="st18" points="311.95,106.18 218.88,103 218.88,90.51 311.95,94.35 				"/>
				<polygon class="st19" points="286.92,110.52 218.88,108.4 218.88,112.22 286.92,114.19 				"/>
				<polygon class="st19" points="286.92,119.7 228.11,118.19 228.11,121.98 286.92,123.37 				"/>
				<polygon class="st4" points="309.55,103.89 301.98,103.62 301.98,96.16 309.55,96.46 				"/>
				<path class="st19" d="M223.99,119.82c0,1.41-1.22,2.52-2.72,2.49c-1.51-0.04-2.73-1.21-2.73-2.62c0-1.41,1.22-2.52,2.73-2.49
					C222.77,117.24,223.99,118.41,223.99,119.82z"/>
				<polygon class="st19" points="300.96,129.16 243.12,127.99 243.12,131.75 300.96,132.8 				"/>
				<path class="st19" d="M239.08,129.63c0,1.4-1.2,2.51-2.67,2.48c-1.48-0.03-2.68-1.18-2.68-2.58c0-1.4,1.2-2.51,2.68-2.48
					C237.88,127.08,239.08,128.23,239.08,129.63z"/>
				<polygon class="st19" points="300.96,138.26 243.12,137.4 243.12,141.17 300.96,141.9 				"/>
				<path class="st19" d="M239.08,139.06c0,1.4-1.2,2.51-2.67,2.49c-1.48-0.02-2.68-1.17-2.68-2.57c0-1.4,1.2-2.52,2.68-2.49
					C237.88,136.52,239.08,137.67,239.08,139.06z"/>
			</g>
			<path class="st6" d="M324.2,122.78c-1.13-0.05-2.25,0.21-3.23,0.75c-0.27-1.24-0.93-2.36-1.9-3.21
				c-0.97-0.84-2.18-1.36-3.45-1.46c-1.17-0.06-2.31,0.25-3.28,0.86c-0.59-1.39-1.6-2.58-2.89-3.4c-1.3-0.82-2.81-1.23-4.33-1.17
				c-1.33-0.1-2.66,0.19-3.81,0.84c-1.15,0.65-2.06,1.63-2.63,2.81c-1.12-0.86-2.5-1.34-3.91-1.37c-0.9-0.03-1.8,0.11-2.64,0.42
				c-0.84,0.31-1.6,0.78-2.24,1.39c-0.64,0.61-1.15,1.34-1.49,2.15c-0.34,0.81-0.52,1.69-0.51,2.57v4.91
				c-0.86-0.3-1.76-0.46-2.67-0.46c-1.06,0.04-2.09,0.33-3,0.86c-0.91,0.53-1.66,1.27-2.2,2.15c-1.14,1.84-1.87,5.15,1.09,10.37
				c4.57,8.06,11.74,23.76,11.81,23.92l0.39,0.85l31.11-0.06v-7.37c0-2.06,0.22-4.32,2.83-9.28c2.07-3.39,3.07-7.32,2.86-11.29
				v-10.01c-0.07-1.47-0.69-2.88-1.74-3.94c-1.05-1.07-2.45-1.72-3.93-1.83L324.2,122.78z M327.28,138.29
				c0.2,3.53-0.69,7.02-2.55,10.01c-2.92,5.54-3.17,8.17-3.17,10.6v4.77l-26.29,0.01c-1.57-3.43-7.55-16.31-11.57-23.43
				c-1.8-3.2-2.2-5.81-1.14-7.54c0.27-0.46,0.66-0.85,1.12-1.13c0.46-0.29,0.98-0.46,1.53-0.51c1.7,0.03,2.34,0.52,2.69,1.04v5.41
				l2.98,0.05v-13.88c-0.01-0.51,0.08-1.01,0.28-1.48c0.19-0.47,0.48-0.89,0.85-1.24c0.37-0.35,0.81-0.62,1.29-0.8
				c0.48-0.18,1-0.26,1.52-0.23c0.45,0,0.89,0.08,1.31,0.24c0.42,0.16,0.8,0.41,1.12,0.71c0.32,0.31,0.58,0.67,0.76,1.08
				c0.18,0.4,0.27,0.83,0.28,1.27v8.67l2.94,0.05v-11.23c0.12-0.93,0.6-1.76,1.35-2.32c0.75-0.56,1.7-0.8,2.64-0.68
				c2.81,0.08,4.78,1.64,4.78,3.81v10.58l2.9,0.05v-8.61c0.09-0.68,0.44-1.29,0.98-1.71c0.54-0.42,1.23-0.61,1.92-0.53
				c1.97,0.05,2.88,2.62,2.88,4.33v8.05l2.87,0.05v-5.54c-0.01-0.51,0.11-1.01,0.36-1.45c0.25-0.44,0.61-0.8,1.04-1.06
				c0.44-0.22,0.92-0.33,1.42-0.31c0.49,0.02,0.98,0.16,1.41,0.41c0.43,0.25,0.79,0.6,1.05,1.03c0.26,0.42,0.41,0.9,0.44,1.39
				V138.29z"/>
		</g>
	</g>
</g>
</svg>
